<mxfile host="app.diagrams.net" modified="2023-07-13T13:35:38.882Z" agent="Mozilla/5.0 (X11; Linux x86_64) AppleWebKit/537.36 (KHTML, like Gecko) Chrome/113.0.0.0 Safari/537.36" version="21.5.0" etag="_xI2uZ_aUls6M7zOehW2" type="github">
  <diagram name="PÃ¡gina-1" id="_a3Z4fctEoO1Y9XJ14Cf">
    <mxGraphModel>
      <root>
        <mxCell id="0" />
        <mxCell id="1" parent="0" />
      </root>
    </mxGraphModel>
  </diagram>
</mxfile>
